<?xml version="1.0" encoding="UTF-8"?>
<svg width="50" height="50" version="1.1" viewBox="0 0 13.229166 13.229167" xmlns="http://www.w3.org/2000/svg" xmlns:cc="http://creativecommons.org/ns#" xmlns:dc="http://purl.org/dc/elements/1.1/" xmlns:rdf="http://www.w3.org/1999/02/22-rdf-syntax-ns#">
<metadata>
<rdf:RDF>
<cc:Work rdf:about="">
<dc:format>image/svg+xml</dc:format>
<dc:type rdf:resource="http://purl.org/dc/dcmitype/StillImage"/>
<dc:title/>
</cc:Work>
</rdf:RDF>
</metadata>
<g transform="matrix(-1 0 0 1 13.229 0)">
<g transform="matrix(1.2495,0,0,1.2474,-2.2188,-1.3728)" stroke-width=".80098">
<g transform="rotate(-5.9437,6.9598,11.92)">
<path d="m8.9285 7.0659c0.23337 0.013868 0.39184 0.090145 0.35914 0.32573-0.051735 0.27182-0.37775 0.43543-0.39255 0.68488 0.07134 0.39219-0.054992 0.77377-0.28397 0.70158" fill="#fbc29b" stroke="#000" stroke-linecap="round" stroke-width=".10596"/>
<path d="m6.5565 9.6384c0.089019 0.27069 0.29219 0.98143 0.15869 1.3196 0.60163 1.0455 1.3155 0.92537 1.0691 0.12528 0.27629-0.66114 0.87859-0.17264 0.93544-0.98556-0.63748-0.42247-1.3264-0.67922-2.1632-0.45937z" fill="#fbc29b" stroke="#000" stroke-width=".10596"/>
<path d="m6.2808 6.1556 0.25892 2.3887c0.038679 0.23822-0.06254 0.38342-0.21716 0.64312-0.12079 0.10981 0.062087 0.72917 1.5786 0.91874 1.5165 0.18957 1.4094-0.45276 0.70993-1.0106-0.10033-0.12725 0.4766-2.548 0.37585-2.5224 0.17582-2.477-2.8185-2.2853-2.7061-0.41761z" fill="#fbc29b" stroke="#000" stroke-width=".10596"/>
<g transform="matrix(.78063 0 0 .91759 2.6181 .6956)" stroke-width=".80098">
<path d="m7.0116 7.3332c0.46815 0.25663 0.69227 0.14827 0.78785-0.033409 0.00182 0.45786-0.22647 0.711-0.40769 0.6665-0.33005-0.081056-0.21758-0.36-0.38016-0.63309z" fill="#fff" stroke="#000" stroke-linejoin="round" stroke-width=".062601"/>
<ellipse transform="matrix(.99353 .11359 -.12261 .99245 0 0)" cx="8.4069" cy="6.8004" rx=".14442" ry=".20692" fill="#28170b" fill-rule="evenodd"/>
<path d="m7.0492 7.3541c-0.097952-0.052914-0.15083-0.11413-0.23177-0.16704" fill="none" stroke="#000" stroke-linecap="round" stroke-width=".052982"/>
</g>
<path d="m8.5524 10.531c-0.23768 0.15848-0.33295 8.23e-4 -0.77657-0.0431" fill="none" stroke="#000" stroke-linecap="round" stroke-width=".052982"/>
<path d="m8.0674 10.749c-0.23786 0.10059-0.44692 0.24207-0.42522 0.71166" fill="none" stroke="#000" stroke-linecap="round" stroke-width=".052982"/>
<path d="m6.64 6.8905c-0.437-0.47709-0.76329-0.10976-0.7291 0.22421 0.056616 0.55313 0.331 0.49614 0.31985 0.79475-0.18495 0.41951-0.00491 1.0119 0.5596 0.28397" fill="#fbc29b" stroke="#000" stroke-linecap="round" stroke-width=".10596"/>
<path d="m6.5786 7.5867c-0.13892 0.1092-0.11557 0.19448 0.044714 0.26432" fill="none" stroke="#000" stroke-linecap="round" stroke-width=".052982"/>
<g stroke-width=".80098">
<path d="m7.0116 7.3332c0.46815 0.25663 0.69227 0.14827 0.78785-0.033409 0.00182 0.45786-0.22647 0.711-0.40769 0.6665-0.33005-0.081056-0.21758-0.36-0.38016-0.63309z" fill="#fff" stroke="#000" stroke-linejoin="round" stroke-width=".052982"/>
<ellipse transform="matrix(.99353 .11359 -.12261 .99245 0 0)" cx="8.4069" cy="6.8004" rx=".14442" ry=".20692" fill="#28170b" fill-rule="evenodd"/>
<path d="m7.0492 7.3541c-0.097952-0.052914-0.15083-0.11413-0.23177-0.16704" fill="none" stroke="#000" stroke-linecap="round" stroke-width=".052982"/>
</g>
<path d="m8.1029 8.3627c-0.085314 0.45215 0.67923 1.1541-0.23624 0.92132" fill="none" stroke="#000" stroke-linecap="round" stroke-width=".052982"/>
</g>
<g transform="rotate(-5.9437,6.9598,11.92)" stroke="#000">
<path d="m6.7494 5.8073c-0.88398 1.4212-1.9479 0.044464-1.2688-0.53929-0.78563-0.060496-1.1104-1.9037 0.014931-1.9661-0.098778-1.7317 1.3855-1.7427 1.8778-1.2128 0.13629-1.4447 2.816-0.85233 2.4067 0.55669 1.124-0.39917 1.8291 2.0978 0.51972 2.1734 0.85519 0.89184-0.20552 1.784-0.75071 1.1783-0.11899 0.61239-0.38667 0.73459-1.0418 0.45577-0.39336 0.34569 0.24739 0.3936-0.44193 1.1475 0.2329-1.088-0.17473-0.43334-2.459e-4 -1.2115-0.56369 0.53205-1.1724 0.049086-1.3158-0.58199z" fill="#502d16" stroke-miterlimit="20" stroke-width=".10596"/>
<g transform="translate(.29233 .20045)" fill="none" stroke-linecap="round" stroke-width=".052982">
<path d="m6.4479 3.1237c0.40223 0.13884 0.76649 0.34098 1.0357 0.70158 0.13091 0.047714 0.24759-0.00411 0.33409-0.26727"/>
<path d="m7.4708 3.8204c-0.25018-0.11126-0.51832-0.22561-0.7139-0.16215"/>
</g>
<g transform="matrix(-.81679 -.15997 -.15863 .80992 16.088 2.2915)" fill="none" stroke-linecap="round" stroke-width=".063926">
<path d="m6.4479 3.1237c0.40223 0.13884 0.76649 0.34098 1.0357 0.70158 0.13091 0.047714 0.24759-0.00411 0.33409-0.26727"/>
<path d="m7.4708 3.8204c-0.25018-0.11126-0.51832-0.22561-0.7139-0.16215"/>
</g>
<path d="m6.9807 4.8664c0.50101-0.47565 1.5625 1.1762 2.2088 0.42522" fill="none" stroke-linecap="round" stroke-width=".052982"/>
<path d="m5.5279 4.5121c-0.10183-0.29869 0.030661-0.36306 0.14174-0.44885v0" fill="none" stroke-linecap="round" stroke-width=".052982"/>
<path d="m8.4231 2.4392c0.035046-0.18919 0.28445-0.19783 0.21852-0.42522v0" fill="none" stroke-linecap="round" stroke-width=".052982"/>
<path d="m6.3761 2.7909c-0.11661-0.15305 0.044526-0.34361-0.16822-0.44751v0" fill="none" stroke-linecap="round" stroke-width=".052982"/>
<path d="m10.102 5.7996c0.225-0.094215 0.29078-0.29506 0.18308-0.54334v0" fill="none" stroke-linecap="round" stroke-width=".052982"/>
<path d="m8.3857 6.0564c0.071492-0.17864 0.31774-0.13816 0.29771-0.37407v0" fill="none" stroke-linecap="round" stroke-width=".052982"/>
</g>
</g>
</g>
</svg>
