<?xml version="1.0" encoding="UTF-8"?>
<svg width="60" height="85" version="1.1" viewBox="0 0 15.874999 22.489584" xmlns="http://www.w3.org/2000/svg" xmlns:cc="http://creativecommons.org/ns#" xmlns:dc="http://purl.org/dc/elements/1.1/" xmlns:rdf="http://www.w3.org/1999/02/22-rdf-syntax-ns#">
<metadata>
<rdf:RDF>
<cc:Work rdf:about="">
<dc:format>image/svg+xml</dc:format>
<dc:type rdf:resource="http://purl.org/dc/dcmitype/StillImage"/>
<dc:title/>
</cc:Work>
</rdf:RDF>
</metadata>
<g transform="matrix(-1,0,0,1,15.875,0)">
<g transform="matrix(.99391 0 0 .99397 .81161 .13582)" stroke-width="1.0061">
<g transform="translate(-.29766)" stroke="#000" stroke-linecap="round" stroke-linejoin="round" stroke-width=".1331">
<path d="m7.491 20.563c2.5302-0.32138 3.3031 0.11434 3.156 0.90665-0.88314 0.50189-1.9422 0.4338-3.1077 0.37923-0.17645-0.76657 0.047509-0.52614-0.048356-1.2859z" fill="#1a1a1a"/>
<path d="m10.645 21.135c0.03356 0.11329 0.02726 0.19788 0.0019 0.33439-0.88314 0.50189-1.9422 0.4338-3.1077 0.37923-0.033829-0.14697-0.036404-0.22385-0.045873-0.31093 1.3747 0.12601 2.5025 0.06498 3.1516-0.40269z"/>
</g>
<g transform="rotate(4.0036 6.8021 21.199)" stroke="#000" stroke-linecap="round" stroke-linejoin="round" stroke-width=".1331">
<path d="m6.0804 20.533c0.080757 0.84459-0.36869 0.73702-0.21047 1.6604 0.42107 0.17185 1.2596 0.38921 2.9372-0.06615 0.32711-1.1084-0.90467-0.91377-1.0195-1.3838z" fill="#1a1a1a"/>
<path d="m5.8361 21.861c-0.00186 0.10511 0.0077 0.17976 0.033798 0.33207 0.42107 0.17185 1.2596 0.38921 2.9372-0.06615 0.044046-0.14924 0.059828-0.27486 0.053879-0.38166-1.0433 0.43036-2.0477 0.45652-3.0249 0.11574z"/>
</g>
<g stroke="#000" stroke-linecap="round">
<path d="m8.763 13.009c-0.029823 0.1986 0.22952 0.73346-0.020634 1.4967 0.1722 0.53752 0.063798 0.76607 0.34825 1.3999 0.44409 0.05236 0.53365 0.63666 0.42078 0.70207 0.010665 0.03148 0.20753 0.31962-0.12052 0.41304-0.074124 0.17878-0.16707 0.19558-0.31593 0.12835-0.079371 0.13552-0.21373 0.17058-0.34748 0.03194-0.10144 0.05611-0.18755 0.07188-0.30851-0.02063-0.25755-0.34956-0.2663-0.71392-0.038251-1.211-0.036709-0.51054-0.46471-0.64392-0.51264-1.4922l0.041186-1.478c0.21788 0.15016 0.41302-0.0055 0.85375 0.02986z" fill="#fbc29b" stroke-linejoin="round" stroke-width=".1331"/>
<path d="m9.5012 16.66c0.037573-0.13513-0.46757-0.16351-0.65915-0.0099 0.10444 0.12113-0.26885-0.36715-0.28871 0.12761-0.072378-0.072949-0.26352-0.24963-0.24993 0.1066" fill="none" stroke-miterlimit="20" stroke-width=".066549"/>
<path d="m9.5023 16.556c-0.18431 0.13798-0.30952 0.17459-0.52279 0.26913-0.32206-3.87e-4 0.00611-0.42689 0.34325-0.45293" fill="#deaa87" stroke-linejoin="round" stroke-width=".066549"/>
</g>
<g fill="#3562fb" stroke="#000" stroke-linecap="round" stroke-linejoin="round" stroke-width=".1331">
<path d="m8.4891 15.844c0.13008 3.269 0.89689 3.7255 0.28063 3.695 0.1036 0.14713 0.55859 0.67993 0.1754 0.77174 0.23332 0.40786-0.31189 0.10232-1.6253 0.35079l-0.093544-3.0168"/>
<path d="m8.4687 15.844c-0.49047 0.02251-1.2338 0.01038-2.5988-0.24555-0.13238 0.36562-0.18421 0.99731 0.06586 1.7001 0.22746 0.63921-0.041467 1.4707 0.08615 1.9949-0.28358 0.28044-0.15367 0.47819 0.023386 0.6665-0.13624 0.19946-0.31347 0.38001-0.058465 0.76005 0.83707 0.31952 2.1232 0.32393 2.0112 0.10524 0.045437-0.19552-0.13057-0.33569-0.19878-0.5028 0.25608-0.20607 0.12919-0.44159-0.011692-0.6782 0.20055-0.06244 0.023371-0.27596-0.070158-0.45603 0.12141-0.14557-0.1027-0.24783 0-1.789"/>
</g>
<g fill="#005600" stroke="#000" stroke-width=".1331">
<path d="m6.6483 10.908c-0.30973 0.04103-1.0867-0.20892-1.4032 0.11693-0.44332 0.45641-0.18964 1.7026-0.33409 2.0379 0.45925 0.26901 0.88809 0.26424 1.3029 0.13364-0.13351 0.05494-0.34337 0.0884-0.48078 0.08739 0.00341 1.0432 0.023481 1.9684 0.021406 2.5435 1.0498 0.05272 2.4512 0.32754 2.965 0.04176-0.19617-0.40914-0.036498-0.54008-0.1954-1.4496-0.025779-0.14756-0.11756-0.2903-0.19112-0.95677 0.014889-0.29714-0.020841-0.71887-0.081207-1.302 0.035348 0.42855 0.09487 0.53561 0.089816 1.3015 0.24943 0.05969 0.47322 0.03144 0.63274-0.02733-0.06707-0.06707-0.12174-1.9388-0.40416-2.1446-0.21158-0.15418-0.95613-0.20844-0.94946-0.24179z" stroke-linejoin="round"/>
<path d="m6.2182 13.193c0.026996-0.35791 0.032997-0.72631-0.00222-1.1153" stroke-linecap="round"/>
</g>
<g stroke="#000" stroke-linecap="round">
<path d="m6.0193 13.248c0.017983 0.33886 0.032217 0.69984-0.16536 1.4698 0.29766 0.47956 0.24805 0.7276 0.67799 1.2733 0.4435-0.05713 0.67237 0.48789 0.57878 0.57878 0.017994 0.02794 0.27898 0.25961-0.016536 0.42995-0.028458 0.19143-0.11453 0.23032-0.27527 0.20128-0.044059 0.15075-0.16587 0.21741-0.3293 0.11542-0.084762 0.079082-0.16446 0.1153-0.30427 0.054954-0.33477-0.27649-0.43181-0.6278-0.33139-1.1654-0.15967-0.48632-0.60726-0.51169-0.8599-1.3229l0.090449-1.7331c0.24784 0.09271 0.49871 0.1708 0.93481 0.09796z" fill="#fbc29b" stroke-linejoin="round" stroke-width=".1331"/>
<path d="m7.1121 16.617c-0.18144-0.17545-0.158-0.18906-0.32935-0.33715" fill="none" stroke-width=".066549"/>
</g>
<g stroke-width="1.0061">
<g transform="rotate(-5.9437 6.9598 11.92)">
<path d="m8.9285 7.0659c0.23337 0.013868 0.39184 0.090145 0.35914 0.32573-0.051735 0.27182-0.37775 0.43543-0.39255 0.68488 0.07134 0.39219-0.054992 0.77377-0.28397 0.70158" fill="#fbc29b" stroke="#000" stroke-linecap="round" stroke-width=".1331"/>
<path d="m6.5565 9.6384c0.089019 0.27069 0.29219 0.98143 0.15869 1.3196 0.60163 1.0455 1.3155 0.92537 1.0691 0.12528 0.27629-0.66114 0.87859-0.17264 0.93544-0.98556-0.63748-0.42247-1.3264-0.67922-2.1632-0.45937z" fill="#fbc29b" stroke="#000" stroke-width=".1331"/>
<path d="m6.2808 6.1556 0.25892 2.3887c0.038679 0.23822-0.06254 0.38342-0.21716 0.64312-0.12079 0.10981 0.062087 0.72917 1.5786 0.91874 1.5165 0.18957 1.4094-0.45276 0.70993-1.0106-0.10033-0.12725 0.4766-2.548 0.37585-2.5224 0.17582-2.477-2.8185-2.2853-2.7061-0.41761z" fill="#fbc29b" stroke="#000" stroke-width=".1331"/>
<g transform="matrix(.78063 0 0 .91759 2.6181 .6956)" stroke-width="1.0061">
<path d="m7.0116 7.3332c0.46815 0.25663 0.69227 0.14827 0.78785-0.033409 0.0018204 0.45786-0.22647 0.711-0.40769 0.6665-0.33005-0.081056-0.21758-0.36-0.38016-0.63309z" fill="#fff" stroke="#000" stroke-linejoin="round" stroke-width=".078632"/>
<ellipse transform="matrix(.99353 .11359 -.12261 .99245 0 0)" cx="8.4069" cy="6.8004" rx=".14442" ry=".20692" fill="#28170b" fill-rule="evenodd"/>
<path d="m7.0492 7.3541c-0.097952-0.052914-0.15083-0.11413-0.23177-0.16704" fill="none" stroke="#000" stroke-linecap="round" stroke-width=".066549"/>
</g>
<path d="m8.5524 10.531c-0.23768 0.15848-0.33295 8.23e-4 -0.77657-0.0431" fill="none" stroke="#000" stroke-linecap="round" stroke-width=".066549"/>
<path d="m8.0674 10.749c-0.23786 0.10059-0.44692 0.24207-0.42522 0.71166" fill="none" stroke="#000" stroke-linecap="round" stroke-width=".066549"/>
<path d="m6.64 6.8905c-0.437-0.47709-0.76329-0.10976-0.7291 0.22421 0.056616 0.55313 0.331 0.49614 0.31985 0.79475-0.18495 0.41951-0.0049096 1.0119 0.5596 0.28397" fill="#fbc29b" stroke="#000" stroke-linecap="round" stroke-width=".1331"/>
<path d="m6.5786 7.5867c-0.13892 0.1092-0.11557 0.19448 0.044714 0.26432" fill="none" stroke="#000" stroke-linecap="round" stroke-width=".066549"/>
<g stroke-width="1.0061">
<path d="m7.0116 7.3332c0.46815 0.25663 0.69227 0.14827 0.78785-0.033409 0.0018204 0.45786-0.22647 0.711-0.40769 0.6665-0.33005-0.081056-0.21758-0.36-0.38016-0.63309z" fill="#fff" stroke="#000" stroke-linejoin="round" stroke-width=".066549"/>
<ellipse transform="matrix(.99353 .11359 -.12261 .99245 0 0)" cx="8.4069" cy="6.8004" rx=".14442" ry=".20692" fill="#28170b" fill-rule="evenodd"/>
<path d="m7.0492 7.3541c-0.097952-0.052914-0.15083-0.11413-0.23177-0.16704" fill="none" stroke="#000" stroke-linecap="round" stroke-width=".066549"/>
</g>
<path d="m8.1029 8.3627c-0.085314 0.45215 0.67923 1.1541-0.23624 0.92132" fill="none" stroke="#000" stroke-linecap="round" stroke-width=".066549"/>
</g>
<g transform="rotate(-5.9437 6.9598 11.92)" stroke="#000">
<path d="m6.7494 5.8073c-0.88398 1.4212-1.9479 0.044464-1.2688-0.53929-0.78563-0.060496-1.1104-1.9037 0.014931-1.9661-0.098778-1.7317 1.3855-1.7427 1.8778-1.2128 0.13629-1.4447 2.816-0.85233 2.4067 0.55669 1.124-0.39917 1.8291 2.0978 0.51972 2.1734 0.85519 0.89184-0.20552 1.784-0.75071 1.1783-0.11899 0.61239-0.38667 0.73459-1.0418 0.45577-0.39336 0.34569 0.24739 0.3936-0.44193 1.1475 0.2329-1.088-0.17473-0.43334-2.459e-4 -1.2115-0.56369 0.53205-1.1724 0.049086-1.3158-0.58199z" fill="#502d16" stroke-miterlimit="20" stroke-width=".1331"/>
<g transform="translate(.29233 .20045)" fill="none" stroke-linecap="round" stroke-width=".066549">
<path d="m6.4479 3.1237c0.40223 0.13884 0.76649 0.34098 1.0357 0.70158 0.13091 0.047714 0.24759-0.00411 0.33409-0.26727"/>
<path d="m7.4708 3.8204c-0.25018-0.11126-0.51832-0.22561-0.7139-0.16215"/>
</g>
<g transform="matrix(-.81679 -.15997 -.15863 .80992 16.088 2.2915)" fill="none" stroke-linecap="round" stroke-width=".080296">
<path d="m6.4479 3.1237c0.40223 0.13884 0.76649 0.34098 1.0357 0.70158 0.13091 0.047714 0.24759-0.00411 0.33409-0.26727"/>
<path d="m7.4708 3.8204c-0.25018-0.11126-0.51832-0.22561-0.7139-0.16215"/>
</g>
<path d="m6.9807 4.8664c0.50101-0.47565 1.5625 1.1762 2.2088 0.42522" fill="none" stroke-linecap="round" stroke-width=".066549"/>
<path d="m5.5279 4.5121c-0.10183-0.29869 0.030661-0.36306 0.14174-0.44885v0" fill="none" stroke-linecap="round" stroke-width=".066549"/>
<path d="m8.4231 2.4392c0.035046-0.18919 0.28445-0.19783 0.21852-0.42522v0" fill="none" stroke-linecap="round" stroke-width=".066549"/>
<path d="m6.3761 2.7909c-0.11661-0.15305 0.044526-0.34361-0.16822-0.44751v0" fill="none" stroke-linecap="round" stroke-width=".066549"/>
<path d="m10.102 5.7996c0.225-0.094215 0.29078-0.29506 0.18308-0.54334v0" fill="none" stroke-linecap="round" stroke-width=".066549"/>
<path d="m8.3857 6.0564c0.071492-0.17864 0.31774-0.13816 0.29771-0.37407v0" fill="none" stroke-linecap="round" stroke-width=".066549"/>
</g>
</g>
<g transform="matrix(.23524 .00034685 -.00036505 .25583 7.114 16.651)" fill="#ffff31" stroke="#000" stroke-miterlimit="23.8" stroke-width=".10851">
<path d="m-0.060089-16.954c0.19146 0.66019 0.38129 1.1892 0.18166 2.7619 0.57535-0.39704 0.96626-0.68861 1.3068-1.1029 0.02737 1.1867-0.2708 2.5759-0.41953 3.9974 0.88107-2.9308 0.80688-3.555 0.86954-5.1889-0.31914 0.39601-0.4687 0.7194-1.1984 1.3569 0.14912-1.2951 0.0737-1.9728-0.0385-2.5493-0.18038 0.23193-0.29288 0.45152-0.70158 0.72497z"/>
<path d="m0.42268-12.687c0.01011 1.0984 0.23845 2.1765-0.4971 3.989 1.5187-1.5105 1.8801-2.8275 2.1745-3.9522-0.34749 0.7989-0.77288 1.5167-1.2733 2.1001-0.02631-0.77959-0.06781-1.0952-0.40414-2.1369z"/>
<path d="m1.8128-14.969c0.03446-0.01204 0.06843-0.0214 0.10148-0.02805 0.1653-0.03324 0.29606-0.0018 0.38346 0.08109 0.087402 0.08291 0.12708 0.21317 0.10256 0.37997-0.024511 0.1668-0.11691 0.35873-0.2736 0.52386-0.15669 0.16513-0.34486 0.2689-0.51016 0.30214-0.1653 0.03324-0.29748 4.77e-4 -0.38488-0.08244-0.0874-0.08291-0.12566-0.21183-0.10114-0.37862 0.02451-0.1668 0.11684-0.36149 0.27353-0.52662 0.0043-0.0045 0.0086-9e-3 0.01299-0.01347 0 0 0.02559-0.27759 0.0081-0.4179-0.09143 0.05934-0.17149 0.1274-0.25201 0.21226-0.19824 0.20893-0.32048 0.45672-0.35604 0.69872-0.03556 0.24199 0.01964 0.48976 0.1955 0.65658 0.17586 0.16682 0.42762 0.21027 0.66744 0.16204s0.47946-0.18465 0.6777-0.39358c0.19824-0.20893 0.32056-0.45396 0.35612-0.69595 0.035564-0.24199-0.021061-0.4911-0.19692-0.65792l2.1e-6 3e-6c-0.17585-0.16681-0.42621-0.20892-0.66603-0.16068-0.0056 0.0011-0.0097-0.0021-0.01523-8.91e-4z" color="#000000" color-rendering="auto" dominant-baseline="auto" fill-rule="evenodd" image-rendering="auto" shape-rendering="auto" solid-color="#000000" stop-color="#000000" style="font-feature-settings:normal;font-variant-alternates:normal;font-variant-caps:normal;font-variant-east-asian:normal;font-variant-ligatures:normal;font-variant-numeric:normal;font-variant-position:normal;font-variation-settings:normal;inline-size:0;isolation:auto;mix-blend-mode:normal;shape-margin:0;shape-padding:0;text-decoration-color:#000000;text-decoration-line:none;text-decoration-style:solid;text-indent:0;text-orientation:mixed;text-transform:none;white-space:normal"/>
<path d="m2.6148-15.821c-0.42166 0.01381-0.75717 0.41211-0.75706 0.89865 4.3e-5 0.32804 0.15429 0.61205 0.38189 0.76895 0.070264-0.10201 0.11696-0.20714 0.14263-0.30748-0.096405-0.07241-0.1694-0.18301-0.20102-0.31471 0.00204 1e-3 0.00356 2e-3 0.00568 0.0031 0.13249 0.06637 0.28688 0.10442 0.45062 0.10439 0.32074-4.3e-5 0.60201-0.14495 0.76119-0.3638 9.525e-4 -0.0018 3.175e-4 -0.0048 0.00103-0.0067-0.00262-0.05411-5.027e-4 -0.06522-0.011369-0.11317-0.035196-0.1533-0.10272-0.29138-0.19637-0.40101-0.011097-0.01299-0.022349-0.02605-0.034106-0.03824-0.1381-0.14321-0.32056-0.23006-0.5209-0.22996-0.00724-7.1e-5 -0.01496-1.42e-4 -0.02222 0zm0.02222 0.3483c0.18934-1.46e-4 0.36059 0.1191 0.43718 0.30438 0 0 0.00587-1.25e-4 -0.00103 0.01137-0.1007 0.11252-0.25816 0.185-0.43563 0.185-0.17462 1e-6 -0.33011-0.07039-0.43098-0.17983 0.075299-0.18871 0.23906-0.32078 0.43046-0.32091zm0.73846 0.83716c-0.20562 0.2065-0.48057 0.31384-0.68523 0.26097-0.029931 0.11592-0.0795 0.23035-0.14728 0.34055 0.032167 0.0047 0.060786 0.01032 0.094051 0.01033 0.34342 1.62e-4 0.63455-0.25616 0.73846-0.61185z" fill-rule="evenodd"/>
<path d="m2.2982-18.206c0.19146 0.66019 0.38129 1.1892 0.18166 2.7619 0.8468-0.60739 1.2722-1.2059 1.7568-2.2944-0.31914 0.39601-0.4687 0.7194-1.1984 1.3569 0.14912-1.2951 0.0737-1.9728-0.0385-2.5493-0.18038 0.23193-0.29288 0.45152-0.70158 0.72497z"/>
</g>
</g>
</g>
</svg>
